PathFileType	4	(X/Y/Z)	pose_F01_0-89.trc
DataRate	CameraRate	NumFrames	NumMarkers	Units	OrigDataRate	OrigDataStartFrame	OrigNumFrames
30	30	9	21	m	30	44	89
Frame#	Time	CHip			RHip			RKnee			RAnkle			RBigToe			RSmallToe			RHeel			LHip			LKnee			LAnkle			LBigToe			LSmallToe			LHeel			Neck			Nose			RShoulder			RElbow			RWrist			LShoulder			LElbow			LWrist			
		X1	Y1	Z1	X2	Y2	Z2	X3	Y3	Z3	X4	Y4	Z4	X5	Y5	Z5	X6	Y6	Z6	X7	Y7	Z7	X8	Y8	Z8	X9	Y9	Z9	X10	Y10	Z10	X11	Y11	Z11	X12	Y12	Z12	X13	Y13	Z13	X14	Y14	Z14	X15	Y15	Z15	X16	Y16	Z16	X17	Y17	Z17	X18	Y18	Z18	X19	Y19	Z19	X20	Y20	Z20	X21	Y21	Z21	
44	1.4666666666666666	-0.2715680923370126	1.8627437270250404	-0.540832849639441	-0.2856297386415852	1.8603180884814146	-0.4725723606610563	-0.2856139153089606	1.7109868074303856	-0.40207966612319435													-0.25496853484063114	1.8705186704411667	-0.6144572540317959	-0.2472679511587189	1.72515970689519	-0.600410409990498	-0.21728595850439283	1.6087675146493727	-0.692668347894545										-0.2652380186027739	2.04007976902796	-0.5168011670002368	-0.24040319666790896	2.1061014785129477	-0.5397119260317683	-0.28795489566152543	2.027902792527198	-0.444149641701897	-0.27784347606139836	1.9590433066742694	-0.3805400476216319	-2.157877201051011	1.9263340102146216	1.9388617935734849	-0.23990917740062837	2.053718729066426	-0.586735457155549	-0.23264624023258443	2.0290542421648	-0.505142269199497	-0.2314232719776284	2.0098639127467957	-0.5321188655820581
45	1.5	-0.26645525130619996	1.856820613930706	-0.5497051815134552	-0.2846657982194454	1.8542658610727973	-0.4773920153675437	-0.2856139153089606	1.7109868074303856	-0.40207966612319435													-0.25150317724415283	1.8613442429779448	-0.6212918686338708	-0.2472679511587189	1.72515970689519	-0.600410409990498	-0.21728595850439283	1.6087675146493727	-0.692668347894545										-0.25743980509751924	2.0359660989411026	-0.5507550944260141	-0.2269842330295405	2.1017743481895357	-0.5731327707087369	-0.2824195258302563	2.02655242754127	-0.467103788191238	-0.2777983896167031	1.9586695563569156	-0.40229782088949945	-1.6923499318489654	1.9186869147721155	1.3420283687157841	-0.2308524703630744	2.046245833151135	-0.6373543138729182	-0.7714975527481192	1.9538458653817075	-0.007645335236084627	-0.19323513409065582	2.000195127723607	-0.6840632800027273
46	1.5333333333333334	-0.257317190640918	1.8561632581308356	-0.555403873281741	-0.2737485337294701	1.852790567874821	-0.4847930384567279	-0.2856139153089606	1.7109868074303856	-0.40207966612319435													-0.2382024160149572	1.8583564564676838	-0.6309628045108243	-0.2472679511587189	1.72515970689519	-0.600410409990498	-0.21728595850439283	1.6087675146493727	-0.692668347894545										-0.25020218799314115	2.0341061018912057	-0.5712907290286454	-0.2128490432704654	2.098995209333052	-0.5898692098710115	-0.27483874042706796	2.0287508685042455	-0.48518690199740877	-0.27775330317200786	1.9582958060395619	-0.424055594157367	-1.2268226626469199	1.9110398193296092	0.7451949438580832	-0.2197840659194243	2.0428642701335904	-0.6563207591302417	-1.310348865263654	1.8786374885986148	0.48985159872732775	-0.15504699620368323	1.9905263427004185	-0.8360076944233965
47	1.5666666666666667	-0.25087829771450204	1.8622383987319628	-0.5596434188213502	-0.26816019807826236	1.8602927724686331	-0.4838432593624994	-0.2856139153089606	1.7109868074303856	-0.40207966612319435													-0.2355828886697454	1.8650838847093167	-0.6309472474592389	-0.2472679511587189	1.72515970689519	-0.600410409990498	-0.21728595850439283	1.6087675146493727	-0.692668347894545										-0.2469410747054204	2.0412370993313123	-0.5890740954416852	-0.20966189097496513	2.0997213637417653	-0.5987645058022939	-0.27273188841406365	2.0325176152444153	-0.48842115174427075	-0.27770821672731255	1.957922055722208	-0.44581336742523453	-0.7612953934448743	1.9033927238871031	0.1483615190003822	-0.22151007660702052	2.053341550553528	-0.6934282596551367	-0.1793144059634109	2.014834753629044	-0.8348301132828704	-0.11685885831671068	1.9808575576772298	-0.9879521088440658
48	1.6	-0.24715454631389797	1.870257898430958	-0.5684342211059202	-0.2648135385203185	1.8660370320783959	-0.4924156326376987	-0.2856139153089606	1.7109868074303856	-0.40207966612319435													-0.23057982461792798	1.8742330275011865	-0.6452569237958843	-0.2472679511587189	1.72515970689519	-0.600410409990498	-0.21728595850439283	1.6087675146493727	-0.692668347894545										-0.2434316322802834	2.0467465888422227	-0.59665670956178	-0.20658749134673285	2.104639231440014	-0.5987264636020688	-0.2645835811901787	2.0373232081815837	-0.4889198866806862	-0.2776631302826173	1.9575483054048541	-0.46757114069310207	-0.29576812424282867	1.895745628444597	-0.4484719058573187	-0.21945081463760177	2.0570940794936727	-0.7067885788845114	-0.1797579345770539	2.011602680236404	-0.8479720486382433	-0.7522716470920318	1.8796553658578514	-0.4143987994470646
49	1.6333333333333333	-0.24465969861890166	1.8757329929541904	-0.5712230362233529	-0.2564153061935398	1.8719491570776927	-0.49316560244252255	-0.2856139153089606	1.7109868074303856	-0.40207966612319435													-0.23095095204323407	1.878861085048924	-0.648817362917058	-0.2472679511587189	1.72515970689519	-0.600410409990498	-0.21728595850439283	1.6087675146493727	-0.692668347894545										-0.2401993686490462	2.0501502232359585	-0.5961903266636509	-0.21160868204922742	2.1106297016080933	-0.589680371728733	-0.259249009768454	2.0438112966809148	-0.49086152446141723	-0.2694473648485466	1.955408879769161	-0.45030944733349154	-0.28381801901921333	1.8925660440559697	-0.4287990456832431	-0.21637950750071966	2.0581105356794205	-0.7059269869000017	-0.190602704522706	2.00119553684931	-0.8210300415547229	-0.8742509133122703	1.8485318154793196	-0.2549222960441926
50	1.6666666666666667	-0.24078717570069585	1.8764635207577842	-0.5705414164889622	-0.24969316731357777	1.8746971432105883	-0.4999629319473029	-0.2856139153089606	1.7109868074303856	-0.40207966612319435													-0.22723600859828078	1.8801006266075115	-0.6480077117581814	-0.2472679511587189	1.72515970689519	-0.600410409990498	-0.21728595850439283	1.6087675146493727	-0.692668347894545										-0.24006607633284385	2.0501560488446535	-0.5955465246792031	-0.21477305455470583	2.1141611135403493	-0.5831412267863995	-0.25711748616676927	2.045131152560027	-0.4929669723529398	-0.2669621999116415	1.9577348678093422	-0.4521267073459709	-0.27186791379559805	1.8893864596673424	-0.4091261855091676	-0.22060880819274925	2.057835652219171	-0.700907462190322	-0.20144747446835812	1.9907883934622161	-0.7940880344712026	-0.9962301795325089	1.8174082651007875	-0.09544579264132062
51	1.7	-0.24327759095621004	1.8752156439699974	-0.5680221295171587	-0.25118583464713373	1.8725909376317276	-0.4945214176565995	-0.2856139153089606	1.7109868074303856	-0.40207966612319435													-0.22885928671432923	1.8785768807582897	-0.6424706510652631	-0.2472679511587189	1.72515970689519	-0.600410409990498	-0.21728595850439283	1.6087675146493727	-0.692668347894545										-0.24124008672037026	2.051071433875445	-0.5907851971544911	-0.217825240632164	2.11623918438724	-0.5751981477438664	-0.25719144207536015	2.046338583559237	-0.4933705761884989	-0.26906444745056646	1.9541451395899343	-0.45003143865012335	-0.27437236270248316	1.8689347190619388	-0.3917971902896273	-0.22329394229968438	2.0562751772141334	-0.6905922053334762	-0.2069927278562904	1.9779274824035764	-0.7577994214565413	-0.8694953214053829	1.8273222520309451	-0.19300847039542607
52	1.7333333333333334	-0.24454984621009748	1.874056588579363	-0.5623568990507621	-0.25235351249407395	1.8704055067986778	-0.4888945679099708	-0.2856139153089606	1.7109868074303856	-0.40207966612319435													-0.22938242571724005	1.8767452569883853	-0.6337425434876083	-0.2472679511587189	1.72515970689519	-0.600410409990498	-0.21728595850439283	1.6087675146493727	-0.692668347894545										-0.24122751348856053	2.0498666241429193	-0.5900918236054146	-0.22294312666137203	2.1169704094652024	-0.5654546311763677	-0.2570478735921204	2.0471239108235215	-0.4850280550314359	-0.26795786561949286	1.9537093896574675	-0.43818767820102683	-0.27035962196387925	1.865218201202893	-0.36928054017675105	-0.2233658865159654	2.053949755432823	-0.6900215810915257	-0.2192223553650175	1.96554011577809	-0.7170700156464164	-0.7427604632782567	1.8372362389611028	-0.2905711481495315
